<mxfile host="Electron" modified="2024-05-22T07:39:14.977Z" agent="Mozilla/5.0 (Windows NT 10.0; Win64; x64) AppleWebKit/537.36 (KHTML, like Gecko) draw.io/24.1.0 Chrome/120.0.6099.109 Electron/28.1.0 Safari/537.36" etag="I-iJ10kKyzo6wfCxdt9F" version="24.1.0" type="device">
  <diagram name="Page-1" id="e56a1550-8fbb-45ad-956c-1786394a9013">
    <mxGraphModel dx="1626" dy="1456" grid="1" gridSize="10" guides="1" tooltips="1" connect="1" arrows="1" fold="1" page="1" pageScale="1" pageWidth="1100" pageHeight="850" background="none" math="0" shadow="0">
      <root>
        <mxCell id="0" />
        <mxCell id="1" parent="0" />
        <mxCell id="2e49270ec7c68f3f-58" value="" style="edgeStyle=orthogonalEdgeStyle;html=1;endArrow=ERzeroToMany;startArrow=ERmandOne;labelBackgroundColor=none;fontFamily=Verdana;fontSize=14;entryX=0;entryY=0.5;entryDx=0;entryDy=0;exitX=1;exitY=0.5;exitDx=0;exitDy=0;" parent="1" source="vMmtyB95VaC7h1viAyWy-76" target="vMmtyB95VaC7h1viAyWy-57" edge="1">
          <mxGeometry width="100" height="100" relative="1" as="geometry">
            <mxPoint x="180" y="290" as="sourcePoint" />
            <mxPoint x="540" y="149" as="targetPoint" />
            <Array as="points">
              <mxPoint x="360" y="275" />
              <mxPoint x="360" y="140" />
              <mxPoint x="560" y="140" />
            </Array>
          </mxGeometry>
        </mxCell>
        <mxCell id="vMmtyB95VaC7h1viAyWy-29" value="Ürünler Veritabanı" style="swimlane;html=1;fontStyle=0;childLayout=stackLayout;horizontal=1;startSize=40;fillColor=#7EA6E0;horizontalStack=0;resizeParent=1;resizeLast=0;collapsible=1;marginBottom=0;swimlaneFillColor=#ffffff;align=center;rounded=0;shadow=0;comic=0;labelBackgroundColor=none;strokeWidth=1;fontFamily=Verdana;fontSize=14" parent="1" vertex="1">
          <mxGeometry x="-380" y="260" width="160" height="330" as="geometry" />
        </mxCell>
        <mxCell id="vMmtyB95VaC7h1viAyWy-30" value="Ürünler No (Barkod)" style="shape=partialRectangle;top=0;left=0;right=0;bottom=1;html=1;align=left;verticalAlign=middle;fillColor=#D4E1F5;spacingLeft=34;spacingRight=4;whiteSpace=wrap;overflow=hidden;rotatable=0;points=[[0,0.5],[1,0.5]];portConstraint=eastwest;dropTarget=0;fontStyle=5;" parent="vMmtyB95VaC7h1viAyWy-29" vertex="1">
          <mxGeometry y="40" width="160" height="30" as="geometry" />
        </mxCell>
        <mxCell id="vMmtyB95VaC7h1viAyWy-31" value="PK" style="shape=partialRectangle;top=0;left=0;bottom=0;html=1;fillColor=#D4E1F5;align=left;verticalAlign=middle;spacingLeft=4;spacingRight=4;whiteSpace=wrap;overflow=hidden;rotatable=0;points=[];portConstraint=eastwest;part=1;" parent="vMmtyB95VaC7h1viAyWy-30" vertex="1" connectable="0">
          <mxGeometry width="30" height="30" as="geometry" />
        </mxCell>
        <mxCell id="vMmtyB95VaC7h1viAyWy-32" value="Kullanıcı No" style="shape=partialRectangle;top=0;left=0;right=0;bottom=0;html=1;align=left;verticalAlign=top;fillColor=#D4E1F5;spacingLeft=34;spacingRight=4;whiteSpace=wrap;overflow=hidden;rotatable=0;points=[[0,0.5],[1,0.5]];portConstraint=eastwest;dropTarget=0;" parent="vMmtyB95VaC7h1viAyWy-29" vertex="1">
          <mxGeometry y="70" width="160" height="26" as="geometry" />
        </mxCell>
        <mxCell id="vMmtyB95VaC7h1viAyWy-33" value="FK" style="shape=partialRectangle;top=0;left=0;bottom=0;html=1;fillColor=#D4E1F5;align=left;verticalAlign=top;spacingLeft=4;spacingRight=4;whiteSpace=wrap;overflow=hidden;rotatable=0;points=[];portConstraint=eastwest;part=1;" parent="vMmtyB95VaC7h1viAyWy-32" vertex="1" connectable="0">
          <mxGeometry width="30" height="26" as="geometry" />
        </mxCell>
        <mxCell id="vMmtyB95VaC7h1viAyWy-34" value="Ürünün Adı" style="shape=partialRectangle;top=0;left=0;right=0;bottom=0;html=1;align=left;verticalAlign=top;fillColor=#D4E1F5;spacingLeft=34;spacingRight=4;whiteSpace=wrap;overflow=hidden;rotatable=0;points=[[0,0.5],[1,0.5]];portConstraint=eastwest;dropTarget=0;" parent="vMmtyB95VaC7h1viAyWy-29" vertex="1">
          <mxGeometry y="96" width="160" height="26" as="geometry" />
        </mxCell>
        <mxCell id="vMmtyB95VaC7h1viAyWy-35" value="" style="shape=partialRectangle;top=0;left=0;bottom=0;html=1;fillColor=#D4E1F5;align=left;verticalAlign=top;spacingLeft=4;spacingRight=4;whiteSpace=wrap;overflow=hidden;rotatable=0;points=[];portConstraint=eastwest;part=1;" parent="vMmtyB95VaC7h1viAyWy-34" vertex="1" connectable="0">
          <mxGeometry width="30" height="26" as="geometry" />
        </mxCell>
        <mxCell id="vMmtyB95VaC7h1viAyWy-36" value="Ürünün Kategorisi" style="shape=partialRectangle;top=0;left=0;right=0;bottom=0;html=1;align=left;verticalAlign=top;fillColor=#D4E1F5;spacingLeft=34;spacingRight=4;whiteSpace=wrap;overflow=hidden;rotatable=0;points=[[0,0.5],[1,0.5]];portConstraint=eastwest;dropTarget=0;" parent="vMmtyB95VaC7h1viAyWy-29" vertex="1">
          <mxGeometry y="122" width="160" height="26" as="geometry" />
        </mxCell>
        <mxCell id="vMmtyB95VaC7h1viAyWy-37" value="" style="shape=partialRectangle;top=0;left=0;bottom=0;html=1;fillColor=#D4E1F5;align=left;verticalAlign=top;spacingLeft=4;spacingRight=4;whiteSpace=wrap;overflow=hidden;rotatable=0;points=[];portConstraint=eastwest;part=1;" parent="vMmtyB95VaC7h1viAyWy-36" vertex="1" connectable="0">
          <mxGeometry width="30" height="26" as="geometry" />
        </mxCell>
        <mxCell id="l5eqay-o2D8Y2-m2yLf2-1" value="Ürünün Markası" style="shape=partialRectangle;top=0;left=0;right=0;bottom=0;html=1;align=left;verticalAlign=top;fillColor=#D4E1F5;spacingLeft=34;spacingRight=4;whiteSpace=wrap;overflow=hidden;rotatable=0;points=[[0,0.5],[1,0.5]];portConstraint=eastwest;dropTarget=0;" parent="vMmtyB95VaC7h1viAyWy-29" vertex="1">
          <mxGeometry y="148" width="160" height="26" as="geometry" />
        </mxCell>
        <mxCell id="l5eqay-o2D8Y2-m2yLf2-2" value="" style="shape=partialRectangle;top=0;left=0;bottom=0;html=1;fillColor=#D4E1F5;align=left;verticalAlign=top;spacingLeft=4;spacingRight=4;whiteSpace=wrap;overflow=hidden;rotatable=0;points=[];portConstraint=eastwest;part=1;" parent="l5eqay-o2D8Y2-m2yLf2-1" vertex="1" connectable="0">
          <mxGeometry width="30" height="26" as="geometry" />
        </mxCell>
        <mxCell id="vMmtyB95VaC7h1viAyWy-38" value="Son Kullanma Tarihi" style="shape=partialRectangle;top=0;left=0;right=0;bottom=0;html=1;align=left;verticalAlign=top;fillColor=#D4E1F5;spacingLeft=34;spacingRight=4;whiteSpace=wrap;overflow=hidden;rotatable=0;points=[[0,0.5],[1,0.5]];portConstraint=eastwest;dropTarget=0;" parent="vMmtyB95VaC7h1viAyWy-29" vertex="1">
          <mxGeometry y="174" width="160" height="26" as="geometry" />
        </mxCell>
        <mxCell id="vMmtyB95VaC7h1viAyWy-39" value="" style="shape=partialRectangle;top=0;left=0;bottom=0;html=1;fillColor=#D4E1F5;align=left;verticalAlign=top;spacingLeft=4;spacingRight=4;whiteSpace=wrap;overflow=hidden;rotatable=0;points=[];portConstraint=eastwest;part=1;" parent="vMmtyB95VaC7h1viAyWy-38" vertex="1" connectable="0">
          <mxGeometry width="30" height="26" as="geometry" />
        </mxCell>
        <mxCell id="l5eqay-o2D8Y2-m2yLf2-5" value="Ürün Kalori Değeri" style="shape=partialRectangle;top=0;left=0;right=0;bottom=0;html=1;align=left;verticalAlign=top;fillColor=#D4E1F5;spacingLeft=34;spacingRight=4;whiteSpace=wrap;overflow=hidden;rotatable=0;points=[[0,0.5],[1,0.5]];portConstraint=eastwest;dropTarget=0;" parent="vMmtyB95VaC7h1viAyWy-29" vertex="1">
          <mxGeometry y="200" width="160" height="26" as="geometry" />
        </mxCell>
        <mxCell id="l5eqay-o2D8Y2-m2yLf2-6" value="" style="shape=partialRectangle;top=0;left=0;bottom=0;html=1;fillColor=#D4E1F5;align=left;verticalAlign=top;spacingLeft=4;spacingRight=4;whiteSpace=wrap;overflow=hidden;rotatable=0;points=[];portConstraint=eastwest;part=1;" parent="l5eqay-o2D8Y2-m2yLf2-5" vertex="1" connectable="0">
          <mxGeometry width="30" height="26" as="geometry" />
        </mxCell>
        <mxCell id="vMmtyB95VaC7h1viAyWy-42" value="Besin Degerleri" style="shape=partialRectangle;top=0;left=0;right=0;bottom=0;html=1;align=left;verticalAlign=top;fillColor=#D4E1F5;spacingLeft=34;spacingRight=4;whiteSpace=wrap;overflow=hidden;rotatable=0;points=[[0,0.5],[1,0.5]];portConstraint=eastwest;dropTarget=0;" parent="vMmtyB95VaC7h1viAyWy-29" vertex="1">
          <mxGeometry y="226" width="160" height="26" as="geometry" />
        </mxCell>
        <mxCell id="vMmtyB95VaC7h1viAyWy-43" value="" style="shape=partialRectangle;top=0;left=0;bottom=0;html=1;fillColor=#D4E1F5;align=left;verticalAlign=top;spacingLeft=4;spacingRight=4;whiteSpace=wrap;overflow=hidden;rotatable=0;points=[];portConstraint=eastwest;part=1;" parent="vMmtyB95VaC7h1viAyWy-42" vertex="1" connectable="0">
          <mxGeometry width="30" height="26" as="geometry" />
        </mxCell>
        <mxCell id="vMmtyB95VaC7h1viAyWy-40" value="Eklenme Tarihi" style="shape=partialRectangle;top=0;left=0;right=0;bottom=0;html=1;align=left;verticalAlign=top;fillColor=#D4E1F5;spacingLeft=34;spacingRight=4;whiteSpace=wrap;overflow=hidden;rotatable=0;points=[[0,0.5],[1,0.5]];portConstraint=eastwest;dropTarget=0;" parent="vMmtyB95VaC7h1viAyWy-29" vertex="1">
          <mxGeometry y="252" width="160" height="26" as="geometry" />
        </mxCell>
        <mxCell id="vMmtyB95VaC7h1viAyWy-41" value="" style="shape=partialRectangle;top=0;left=0;bottom=0;html=1;fillColor=#D4E1F5;align=left;verticalAlign=top;spacingLeft=4;spacingRight=4;whiteSpace=wrap;overflow=hidden;rotatable=0;points=[];portConstraint=eastwest;part=1;" parent="vMmtyB95VaC7h1viAyWy-40" vertex="1" connectable="0">
          <mxGeometry width="30" height="26" as="geometry" />
        </mxCell>
        <mxCell id="l5eqay-o2D8Y2-m2yLf2-3" value="Son Guncellenme Tarihi" style="shape=partialRectangle;top=0;left=0;right=0;bottom=0;html=1;align=left;verticalAlign=top;fillColor=#D4E1F5;spacingLeft=34;spacingRight=4;whiteSpace=wrap;overflow=hidden;rotatable=0;points=[[0,0.5],[1,0.5]];portConstraint=eastwest;dropTarget=0;" parent="vMmtyB95VaC7h1viAyWy-29" vertex="1">
          <mxGeometry y="278" width="160" height="38" as="geometry" />
        </mxCell>
        <mxCell id="l5eqay-o2D8Y2-m2yLf2-4" value="" style="shape=partialRectangle;top=0;left=0;bottom=0;html=1;fillColor=#D4E1F5;align=left;verticalAlign=top;spacingLeft=4;spacingRight=4;whiteSpace=wrap;overflow=hidden;rotatable=0;points=[];portConstraint=eastwest;part=1;" parent="l5eqay-o2D8Y2-m2yLf2-3" vertex="1" connectable="0">
          <mxGeometry width="30" height="38" as="geometry" />
        </mxCell>
        <mxCell id="vMmtyB95VaC7h1viAyWy-50" value="" style="shape=partialRectangle;top=0;left=0;right=0;bottom=0;html=1;align=left;verticalAlign=top;fillColor=#D4E1F5;spacingLeft=34;spacingRight=4;whiteSpace=wrap;overflow=hidden;rotatable=0;points=[[0,0.5],[1,0.5]];portConstraint=eastwest;dropTarget=0;" parent="vMmtyB95VaC7h1viAyWy-29" vertex="1">
          <mxGeometry y="316" width="160" height="14" as="geometry" />
        </mxCell>
        <mxCell id="vMmtyB95VaC7h1viAyWy-51" value="" style="shape=partialRectangle;top=0;left=0;bottom=0;html=1;fillColor=#D4E1F5;align=left;verticalAlign=top;spacingLeft=4;spacingRight=4;whiteSpace=wrap;overflow=hidden;rotatable=0;points=[];portConstraint=eastwest;part=1;" parent="vMmtyB95VaC7h1viAyWy-50" vertex="1" connectable="0">
          <mxGeometry width="30" height="14" as="geometry" />
        </mxCell>
        <mxCell id="vMmtyB95VaC7h1viAyWy-52" value="Yemek Tarifi&amp;nbsp;&lt;div&gt;Veritabanı&lt;/div&gt;" style="swimlane;html=1;fontStyle=0;childLayout=stackLayout;horizontal=1;startSize=40;fillColor=#7EA6E0;horizontalStack=0;resizeParent=1;resizeLast=0;collapsible=1;marginBottom=0;swimlaneFillColor=#ffffff;align=center;rounded=0;shadow=0;comic=0;labelBackgroundColor=none;strokeWidth=1;fontFamily=Verdana;fontSize=14" parent="1" vertex="1">
          <mxGeometry x="560" y="30" width="160" height="420" as="geometry" />
        </mxCell>
        <mxCell id="vMmtyB95VaC7h1viAyWy-53" value="Yemek Tarifi No" style="shape=partialRectangle;top=0;left=0;right=0;bottom=1;html=1;align=left;verticalAlign=middle;fillColor=#D4E1F5;spacingLeft=34;spacingRight=4;whiteSpace=wrap;overflow=hidden;rotatable=0;points=[[0,0.5],[1,0.5]];portConstraint=eastwest;dropTarget=0;fontStyle=5;" parent="vMmtyB95VaC7h1viAyWy-52" vertex="1">
          <mxGeometry y="40" width="160" height="30" as="geometry" />
        </mxCell>
        <mxCell id="vMmtyB95VaC7h1viAyWy-54" value="PK" style="shape=partialRectangle;top=0;left=0;bottom=0;html=1;fillColor=#D4E1F5;align=left;verticalAlign=middle;spacingLeft=4;spacingRight=4;whiteSpace=wrap;overflow=hidden;rotatable=0;points=[];portConstraint=eastwest;part=1;" parent="vMmtyB95VaC7h1viAyWy-53" vertex="1" connectable="0">
          <mxGeometry width="30" height="30" as="geometry" />
        </mxCell>
        <mxCell id="vMmtyB95VaC7h1viAyWy-55" value="Yazar No" style="shape=partialRectangle;top=0;left=0;right=0;bottom=0;html=1;align=left;verticalAlign=top;fillColor=#D4E1F5;spacingLeft=34;spacingRight=4;whiteSpace=wrap;overflow=hidden;rotatable=0;points=[[0,0.5],[1,0.5]];portConstraint=eastwest;dropTarget=0;" parent="vMmtyB95VaC7h1viAyWy-52" vertex="1">
          <mxGeometry y="70" width="160" height="26" as="geometry" />
        </mxCell>
        <mxCell id="vMmtyB95VaC7h1viAyWy-56" value="FK" style="shape=partialRectangle;top=0;left=0;bottom=0;html=1;fillColor=#D4E1F5;align=left;verticalAlign=top;spacingLeft=4;spacingRight=4;whiteSpace=wrap;overflow=hidden;rotatable=0;points=[];portConstraint=eastwest;part=1;" parent="vMmtyB95VaC7h1viAyWy-55" vertex="1" connectable="0">
          <mxGeometry width="30" height="26" as="geometry" />
        </mxCell>
        <mxCell id="vMmtyB95VaC7h1viAyWy-57" value="Kullanıcı No" style="shape=partialRectangle;top=0;left=0;right=0;bottom=0;html=1;align=left;verticalAlign=top;fillColor=#D4E1F5;spacingLeft=34;spacingRight=4;whiteSpace=wrap;overflow=hidden;rotatable=0;points=[[0,0.5],[1,0.5]];portConstraint=eastwest;dropTarget=0;" parent="vMmtyB95VaC7h1viAyWy-52" vertex="1">
          <mxGeometry y="96" width="160" height="26" as="geometry" />
        </mxCell>
        <mxCell id="vMmtyB95VaC7h1viAyWy-58" value="FK" style="shape=partialRectangle;top=0;left=0;bottom=0;html=1;fillColor=#D4E1F5;align=left;verticalAlign=top;spacingLeft=4;spacingRight=4;whiteSpace=wrap;overflow=hidden;rotatable=0;points=[];portConstraint=eastwest;part=1;" parent="vMmtyB95VaC7h1viAyWy-57" vertex="1" connectable="0">
          <mxGeometry width="30" height="26" as="geometry" />
        </mxCell>
        <mxCell id="vMmtyB95VaC7h1viAyWy-59" value="Başlık" style="shape=partialRectangle;top=0;left=0;right=0;bottom=0;html=1;align=left;verticalAlign=top;fillColor=#D4E1F5;spacingLeft=34;spacingRight=4;whiteSpace=wrap;overflow=hidden;rotatable=0;points=[[0,0.5],[1,0.5]];portConstraint=eastwest;dropTarget=0;" parent="vMmtyB95VaC7h1viAyWy-52" vertex="1">
          <mxGeometry y="122" width="160" height="26" as="geometry" />
        </mxCell>
        <mxCell id="vMmtyB95VaC7h1viAyWy-60" value="" style="shape=partialRectangle;top=0;left=0;bottom=0;html=1;fillColor=#D4E1F5;align=left;verticalAlign=top;spacingLeft=4;spacingRight=4;whiteSpace=wrap;overflow=hidden;rotatable=0;points=[];portConstraint=eastwest;part=1;" parent="vMmtyB95VaC7h1viAyWy-59" vertex="1" connectable="0">
          <mxGeometry width="30" height="26" as="geometry" />
        </mxCell>
        <mxCell id="vMmtyB95VaC7h1viAyWy-61" value="Malzemeler" style="shape=partialRectangle;top=0;left=0;right=0;bottom=0;html=1;align=left;verticalAlign=top;fillColor=#D4E1F5;spacingLeft=34;spacingRight=4;whiteSpace=wrap;overflow=hidden;rotatable=0;points=[[0,0.5],[1,0.5]];portConstraint=eastwest;dropTarget=0;" parent="vMmtyB95VaC7h1viAyWy-52" vertex="1">
          <mxGeometry y="148" width="160" height="26" as="geometry" />
        </mxCell>
        <mxCell id="vMmtyB95VaC7h1viAyWy-62" value="" style="shape=partialRectangle;top=0;left=0;bottom=0;html=1;fillColor=#D4E1F5;align=left;verticalAlign=top;spacingLeft=4;spacingRight=4;whiteSpace=wrap;overflow=hidden;rotatable=0;points=[];portConstraint=eastwest;part=1;" parent="vMmtyB95VaC7h1viAyWy-61" vertex="1" connectable="0">
          <mxGeometry width="30" height="26" as="geometry" />
        </mxCell>
        <mxCell id="vMmtyB95VaC7h1viAyWy-63" value="Talimatlar" style="shape=partialRectangle;top=0;left=0;right=0;bottom=0;html=1;align=left;verticalAlign=top;fillColor=#D4E1F5;spacingLeft=34;spacingRight=4;whiteSpace=wrap;overflow=hidden;rotatable=0;points=[[0,0.5],[1,0.5]];portConstraint=eastwest;dropTarget=0;" parent="vMmtyB95VaC7h1viAyWy-52" vertex="1">
          <mxGeometry y="174" width="160" height="26" as="geometry" />
        </mxCell>
        <mxCell id="vMmtyB95VaC7h1viAyWy-64" value="" style="shape=partialRectangle;top=0;left=0;bottom=0;html=1;fillColor=#D4E1F5;align=left;verticalAlign=top;spacingLeft=4;spacingRight=4;whiteSpace=wrap;overflow=hidden;rotatable=0;points=[];portConstraint=eastwest;part=1;" parent="vMmtyB95VaC7h1viAyWy-63" vertex="1" connectable="0">
          <mxGeometry width="30" height="26" as="geometry" />
        </mxCell>
        <mxCell id="vMmtyB95VaC7h1viAyWy-65" value="Hazırlık Süresi" style="shape=partialRectangle;top=0;left=0;right=0;bottom=0;html=1;align=left;verticalAlign=top;fillColor=#D4E1F5;spacingLeft=34;spacingRight=4;whiteSpace=wrap;overflow=hidden;rotatable=0;points=[[0,0.5],[1,0.5]];portConstraint=eastwest;dropTarget=0;" parent="vMmtyB95VaC7h1viAyWy-52" vertex="1">
          <mxGeometry y="200" width="160" height="26" as="geometry" />
        </mxCell>
        <mxCell id="vMmtyB95VaC7h1viAyWy-66" value="" style="shape=partialRectangle;top=0;left=0;bottom=0;html=1;fillColor=#D4E1F5;align=left;verticalAlign=top;spacingLeft=4;spacingRight=4;whiteSpace=wrap;overflow=hidden;rotatable=0;points=[];portConstraint=eastwest;part=1;" parent="vMmtyB95VaC7h1viAyWy-65" vertex="1" connectable="0">
          <mxGeometry width="30" height="26" as="geometry" />
        </mxCell>
        <mxCell id="vMmtyB95VaC7h1viAyWy-67" value="Pişirme Süresi" style="shape=partialRectangle;top=0;left=0;right=0;bottom=0;html=1;align=left;verticalAlign=top;fillColor=#D4E1F5;spacingLeft=34;spacingRight=4;whiteSpace=wrap;overflow=hidden;rotatable=0;points=[[0,0.5],[1,0.5]];portConstraint=eastwest;dropTarget=0;" parent="vMmtyB95VaC7h1viAyWy-52" vertex="1">
          <mxGeometry y="226" width="160" height="26" as="geometry" />
        </mxCell>
        <mxCell id="vMmtyB95VaC7h1viAyWy-68" value="" style="shape=partialRectangle;top=0;left=0;bottom=0;html=1;fillColor=#D4E1F5;align=left;verticalAlign=top;spacingLeft=4;spacingRight=4;whiteSpace=wrap;overflow=hidden;rotatable=0;points=[];portConstraint=eastwest;part=1;" parent="vMmtyB95VaC7h1viAyWy-67" vertex="1" connectable="0">
          <mxGeometry width="30" height="26" as="geometry" />
        </mxCell>
        <mxCell id="vMmtyB95VaC7h1viAyWy-69" value="Porsiyon Sayısı" style="shape=partialRectangle;top=0;left=0;right=0;bottom=0;html=1;align=left;verticalAlign=top;fillColor=#D4E1F5;spacingLeft=34;spacingRight=4;whiteSpace=wrap;overflow=hidden;rotatable=0;points=[[0,0.5],[1,0.5]];portConstraint=eastwest;dropTarget=0;" parent="vMmtyB95VaC7h1viAyWy-52" vertex="1">
          <mxGeometry y="252" width="160" height="26" as="geometry" />
        </mxCell>
        <mxCell id="vMmtyB95VaC7h1viAyWy-70" value="" style="shape=partialRectangle;top=0;left=0;bottom=0;html=1;fillColor=#D4E1F5;align=left;verticalAlign=top;spacingLeft=4;spacingRight=4;whiteSpace=wrap;overflow=hidden;rotatable=0;points=[];portConstraint=eastwest;part=1;" parent="vMmtyB95VaC7h1viAyWy-69" vertex="1" connectable="0">
          <mxGeometry width="30" height="26" as="geometry" />
        </mxCell>
        <mxCell id="vMmtyB95VaC7h1viAyWy-71" value="Oluşturulma Tarihi" style="shape=partialRectangle;top=0;left=0;right=0;bottom=0;html=1;align=left;verticalAlign=top;fillColor=#D4E1F5;spacingLeft=34;spacingRight=4;whiteSpace=wrap;overflow=hidden;rotatable=0;points=[[0,0.5],[1,0.5]];portConstraint=eastwest;dropTarget=0;" parent="vMmtyB95VaC7h1viAyWy-52" vertex="1">
          <mxGeometry y="278" width="160" height="26" as="geometry" />
        </mxCell>
        <mxCell id="vMmtyB95VaC7h1viAyWy-72" value="" style="shape=partialRectangle;top=0;left=0;bottom=0;html=1;fillColor=#D4E1F5;align=left;verticalAlign=top;spacingLeft=4;spacingRight=4;whiteSpace=wrap;overflow=hidden;rotatable=0;points=[];portConstraint=eastwest;part=1;" parent="vMmtyB95VaC7h1viAyWy-71" vertex="1" connectable="0">
          <mxGeometry width="30" height="26" as="geometry" />
        </mxCell>
        <mxCell id="vMmtyB95VaC7h1viAyWy-148" value="Güncellenme Tarihi" style="shape=partialRectangle;top=0;left=0;right=0;bottom=0;html=1;align=left;verticalAlign=top;fillColor=#D4E1F5;spacingLeft=34;spacingRight=4;whiteSpace=wrap;overflow=hidden;rotatable=0;points=[[0,0.5],[1,0.5]];portConstraint=eastwest;dropTarget=0;" parent="vMmtyB95VaC7h1viAyWy-52" vertex="1">
          <mxGeometry y="304" width="160" height="26" as="geometry" />
        </mxCell>
        <mxCell id="vMmtyB95VaC7h1viAyWy-149" value="" style="shape=partialRectangle;top=0;left=0;bottom=0;html=1;fillColor=#D4E1F5;align=left;verticalAlign=top;spacingLeft=4;spacingRight=4;whiteSpace=wrap;overflow=hidden;rotatable=0;points=[];portConstraint=eastwest;part=1;" parent="vMmtyB95VaC7h1viAyWy-148" vertex="1" connectable="0">
          <mxGeometry width="30" height="26" as="geometry" />
        </mxCell>
        <mxCell id="vMmtyB95VaC7h1viAyWy-150" value="Yemeğin Resmi" style="shape=partialRectangle;top=0;left=0;right=0;bottom=0;html=1;align=left;verticalAlign=top;fillColor=#D4E1F5;spacingLeft=34;spacingRight=4;whiteSpace=wrap;overflow=hidden;rotatable=0;points=[[0,0.5],[1,0.5]];portConstraint=eastwest;dropTarget=0;" parent="vMmtyB95VaC7h1viAyWy-52" vertex="1">
          <mxGeometry y="330" width="160" height="26" as="geometry" />
        </mxCell>
        <mxCell id="vMmtyB95VaC7h1viAyWy-151" value="" style="shape=partialRectangle;top=0;left=0;bottom=0;html=1;fillColor=#D4E1F5;align=left;verticalAlign=top;spacingLeft=4;spacingRight=4;whiteSpace=wrap;overflow=hidden;rotatable=0;points=[];portConstraint=eastwest;part=1;" parent="vMmtyB95VaC7h1viAyWy-150" vertex="1" connectable="0">
          <mxGeometry width="30" height="26" as="geometry" />
        </mxCell>
        <mxCell id="vMmtyB95VaC7h1viAyWy-152" value="Diyet Bilgileri" style="shape=partialRectangle;top=0;left=0;right=0;bottom=0;html=1;align=left;verticalAlign=top;fillColor=#D4E1F5;spacingLeft=34;spacingRight=4;whiteSpace=wrap;overflow=hidden;rotatable=0;points=[[0,0.5],[1,0.5]];portConstraint=eastwest;dropTarget=0;" parent="vMmtyB95VaC7h1viAyWy-52" vertex="1">
          <mxGeometry y="356" width="160" height="26" as="geometry" />
        </mxCell>
        <mxCell id="vMmtyB95VaC7h1viAyWy-153" value="" style="shape=partialRectangle;top=0;left=0;bottom=0;html=1;fillColor=#D4E1F5;align=left;verticalAlign=top;spacingLeft=4;spacingRight=4;whiteSpace=wrap;overflow=hidden;rotatable=0;points=[];portConstraint=eastwest;part=1;" parent="vMmtyB95VaC7h1viAyWy-152" vertex="1" connectable="0">
          <mxGeometry width="30" height="26" as="geometry" />
        </mxCell>
        <mxCell id="vMmtyB95VaC7h1viAyWy-154" value="Alerjen Bilgileri" style="shape=partialRectangle;top=0;left=0;right=0;bottom=0;html=1;align=left;verticalAlign=top;fillColor=#D4E1F5;spacingLeft=34;spacingRight=4;whiteSpace=wrap;overflow=hidden;rotatable=0;points=[[0,0.5],[1,0.5]];portConstraint=eastwest;dropTarget=0;" parent="vMmtyB95VaC7h1viAyWy-52" vertex="1">
          <mxGeometry y="382" width="160" height="26" as="geometry" />
        </mxCell>
        <mxCell id="vMmtyB95VaC7h1viAyWy-155" value="" style="shape=partialRectangle;top=0;left=0;bottom=0;html=1;fillColor=#D4E1F5;align=left;verticalAlign=top;spacingLeft=4;spacingRight=4;whiteSpace=wrap;overflow=hidden;rotatable=0;points=[];portConstraint=eastwest;part=1;" parent="vMmtyB95VaC7h1viAyWy-154" vertex="1" connectable="0">
          <mxGeometry width="30" height="26" as="geometry" />
        </mxCell>
        <mxCell id="vMmtyB95VaC7h1viAyWy-73" value="" style="shape=partialRectangle;top=0;left=0;right=0;bottom=0;html=1;align=left;verticalAlign=top;fillColor=#D4E1F5;spacingLeft=34;spacingRight=4;whiteSpace=wrap;overflow=hidden;rotatable=0;points=[[0,0.5],[1,0.5]];portConstraint=eastwest;dropTarget=0;" parent="vMmtyB95VaC7h1viAyWy-52" vertex="1">
          <mxGeometry y="408" width="160" height="12" as="geometry" />
        </mxCell>
        <mxCell id="vMmtyB95VaC7h1viAyWy-74" value="" style="shape=partialRectangle;top=0;left=0;bottom=0;html=1;fillColor=#D4E1F5;align=left;verticalAlign=top;spacingLeft=4;spacingRight=4;whiteSpace=wrap;overflow=hidden;rotatable=0;points=[];portConstraint=eastwest;part=1;" parent="vMmtyB95VaC7h1viAyWy-73" vertex="1" connectable="0">
          <mxGeometry width="30" height="12" as="geometry" />
        </mxCell>
        <mxCell id="vMmtyB95VaC7h1viAyWy-75" value="Kullanıcı Veritabanı" style="swimlane;html=1;fontStyle=0;childLayout=stackLayout;horizontal=1;startSize=40;fillColor=#7EA6E0;horizontalStack=0;resizeParent=1;resizeLast=0;collapsible=1;marginBottom=0;swimlaneFillColor=#ffffff;align=center;rounded=0;shadow=0;comic=0;labelBackgroundColor=none;strokeWidth=1;fontFamily=Verdana;fontSize=14" parent="1" vertex="1">
          <mxGeometry x="70" y="220" width="160" height="340" as="geometry" />
        </mxCell>
        <mxCell id="vMmtyB95VaC7h1viAyWy-76" value="Kulanıcı No" style="shape=partialRectangle;top=0;left=0;right=0;bottom=1;html=1;align=left;verticalAlign=middle;fillColor=#D4E1F5;spacingLeft=34;spacingRight=4;whiteSpace=wrap;overflow=hidden;rotatable=0;points=[[0,0.5],[1,0.5]];portConstraint=eastwest;dropTarget=0;fontStyle=5;" parent="vMmtyB95VaC7h1viAyWy-75" vertex="1">
          <mxGeometry y="40" width="160" height="30" as="geometry" />
        </mxCell>
        <mxCell id="vMmtyB95VaC7h1viAyWy-77" value="PK" style="shape=partialRectangle;top=0;left=0;bottom=0;html=1;fillColor=#D4E1F5;align=left;verticalAlign=middle;spacingLeft=4;spacingRight=4;whiteSpace=wrap;overflow=hidden;rotatable=0;points=[];portConstraint=eastwest;part=1;" parent="vMmtyB95VaC7h1viAyWy-76" vertex="1" connectable="0">
          <mxGeometry width="30" height="30" as="geometry" />
        </mxCell>
        <mxCell id="vMmtyB95VaC7h1viAyWy-78" value="Adı Soyadı&lt;div&gt;&lt;br&gt;&lt;/div&gt;" style="shape=partialRectangle;top=0;left=0;right=0;bottom=0;html=1;align=left;verticalAlign=top;fillColor=#D4E1F5;spacingLeft=34;spacingRight=4;whiteSpace=wrap;overflow=hidden;rotatable=0;points=[[0,0.5],[1,0.5]];portConstraint=eastwest;dropTarget=0;" parent="vMmtyB95VaC7h1viAyWy-75" vertex="1">
          <mxGeometry y="70" width="160" height="26" as="geometry" />
        </mxCell>
        <mxCell id="vMmtyB95VaC7h1viAyWy-79" value="" style="shape=partialRectangle;top=0;left=0;bottom=0;html=1;fillColor=#D4E1F5;align=left;verticalAlign=top;spacingLeft=4;spacingRight=4;whiteSpace=wrap;overflow=hidden;rotatable=0;points=[];portConstraint=eastwest;part=1;" parent="vMmtyB95VaC7h1viAyWy-78" vertex="1" connectable="0">
          <mxGeometry width="30" height="26" as="geometry" />
        </mxCell>
        <mxCell id="vMmtyB95VaC7h1viAyWy-80" value="Eposta Adresi&amp;nbsp;" style="shape=partialRectangle;top=0;left=0;right=0;bottom=0;html=1;align=left;verticalAlign=top;fillColor=#D4E1F5;spacingLeft=34;spacingRight=4;whiteSpace=wrap;overflow=hidden;rotatable=0;points=[[0,0.5],[1,0.5]];portConstraint=eastwest;dropTarget=0;" parent="vMmtyB95VaC7h1viAyWy-75" vertex="1">
          <mxGeometry y="96" width="160" height="26" as="geometry" />
        </mxCell>
        <mxCell id="vMmtyB95VaC7h1viAyWy-81" value="" style="shape=partialRectangle;top=0;left=0;bottom=0;html=1;fillColor=#D4E1F5;align=left;verticalAlign=top;spacingLeft=4;spacingRight=4;whiteSpace=wrap;overflow=hidden;rotatable=0;points=[];portConstraint=eastwest;part=1;" parent="vMmtyB95VaC7h1viAyWy-80" vertex="1" connectable="0">
          <mxGeometry width="30" height="26" as="geometry" />
        </mxCell>
        <mxCell id="vMmtyB95VaC7h1viAyWy-82" value="Telefon Numarası" style="shape=partialRectangle;top=0;left=0;right=0;bottom=0;html=1;align=left;verticalAlign=top;fillColor=#D4E1F5;spacingLeft=34;spacingRight=4;whiteSpace=wrap;overflow=hidden;rotatable=0;points=[[0,0.5],[1,0.5]];portConstraint=eastwest;dropTarget=0;" parent="vMmtyB95VaC7h1viAyWy-75" vertex="1">
          <mxGeometry y="122" width="160" height="26" as="geometry" />
        </mxCell>
        <mxCell id="vMmtyB95VaC7h1viAyWy-83" value="" style="shape=partialRectangle;top=0;left=0;bottom=0;html=1;fillColor=#D4E1F5;align=left;verticalAlign=top;spacingLeft=4;spacingRight=4;whiteSpace=wrap;overflow=hidden;rotatable=0;points=[];portConstraint=eastwest;part=1;" parent="vMmtyB95VaC7h1viAyWy-82" vertex="1" connectable="0">
          <mxGeometry width="30" height="26" as="geometry" />
        </mxCell>
        <mxCell id="vMmtyB95VaC7h1viAyWy-84" value="Kullanıcı Adı" style="shape=partialRectangle;top=0;left=0;right=0;bottom=0;html=1;align=left;verticalAlign=top;fillColor=#D4E1F5;spacingLeft=34;spacingRight=4;whiteSpace=wrap;overflow=hidden;rotatable=0;points=[[0,0.5],[1,0.5]];portConstraint=eastwest;dropTarget=0;" parent="vMmtyB95VaC7h1viAyWy-75" vertex="1">
          <mxGeometry y="148" width="160" height="26" as="geometry" />
        </mxCell>
        <mxCell id="vMmtyB95VaC7h1viAyWy-85" value="" style="shape=partialRectangle;top=0;left=0;bottom=0;html=1;fillColor=#D4E1F5;align=left;verticalAlign=top;spacingLeft=4;spacingRight=4;whiteSpace=wrap;overflow=hidden;rotatable=0;points=[];portConstraint=eastwest;part=1;" parent="vMmtyB95VaC7h1viAyWy-84" vertex="1" connectable="0">
          <mxGeometry width="30" height="26" as="geometry" />
        </mxCell>
        <mxCell id="vMmtyB95VaC7h1viAyWy-86" value="Şifre" style="shape=partialRectangle;top=0;left=0;right=0;bottom=0;html=1;align=left;verticalAlign=top;fillColor=#D4E1F5;spacingLeft=34;spacingRight=4;whiteSpace=wrap;overflow=hidden;rotatable=0;points=[[0,0.5],[1,0.5]];portConstraint=eastwest;dropTarget=0;" parent="vMmtyB95VaC7h1viAyWy-75" vertex="1">
          <mxGeometry y="174" width="160" height="26" as="geometry" />
        </mxCell>
        <mxCell id="vMmtyB95VaC7h1viAyWy-87" value="" style="shape=partialRectangle;top=0;left=0;bottom=0;html=1;fillColor=#D4E1F5;align=left;verticalAlign=top;spacingLeft=4;spacingRight=4;whiteSpace=wrap;overflow=hidden;rotatable=0;points=[];portConstraint=eastwest;part=1;" parent="vMmtyB95VaC7h1viAyWy-86" vertex="1" connectable="0">
          <mxGeometry width="30" height="26" as="geometry" />
        </mxCell>
        <mxCell id="vMmtyB95VaC7h1viAyWy-88" value="&lt;font style=&quot;font-size: 11px;&quot;&gt;Hesap Oluşturma Tarihi&lt;/font&gt;" style="shape=partialRectangle;top=0;left=0;right=0;bottom=0;html=1;align=left;verticalAlign=top;fillColor=#D4E1F5;spacingLeft=34;spacingRight=4;whiteSpace=wrap;overflow=hidden;rotatable=0;points=[[0,0.5],[1,0.5]];portConstraint=eastwest;dropTarget=0;" parent="vMmtyB95VaC7h1viAyWy-75" vertex="1">
          <mxGeometry y="200" width="160" height="26" as="geometry" />
        </mxCell>
        <mxCell id="vMmtyB95VaC7h1viAyWy-89" value="" style="shape=partialRectangle;top=0;left=0;bottom=0;html=1;fillColor=#D4E1F5;align=left;verticalAlign=top;spacingLeft=4;spacingRight=4;whiteSpace=wrap;overflow=hidden;rotatable=0;points=[];portConstraint=eastwest;part=1;" parent="vMmtyB95VaC7h1viAyWy-88" vertex="1" connectable="0">
          <mxGeometry width="30" height="26" as="geometry" />
        </mxCell>
        <mxCell id="vMmtyB95VaC7h1viAyWy-90" value="Alerjenler" style="shape=partialRectangle;top=0;left=0;right=0;bottom=0;html=1;align=left;verticalAlign=top;fillColor=#D4E1F5;spacingLeft=34;spacingRight=4;whiteSpace=wrap;overflow=hidden;rotatable=0;points=[[0,0.5],[1,0.5]];portConstraint=eastwest;dropTarget=0;" parent="vMmtyB95VaC7h1viAyWy-75" vertex="1">
          <mxGeometry y="226" width="160" height="26" as="geometry" />
        </mxCell>
        <mxCell id="vMmtyB95VaC7h1viAyWy-91" value="" style="shape=partialRectangle;top=0;left=0;bottom=0;html=1;fillColor=#D4E1F5;align=left;verticalAlign=top;spacingLeft=4;spacingRight=4;whiteSpace=wrap;overflow=hidden;rotatable=0;points=[];portConstraint=eastwest;part=1;" parent="vMmtyB95VaC7h1viAyWy-90" vertex="1" connectable="0">
          <mxGeometry width="30" height="26" as="geometry" />
        </mxCell>
        <mxCell id="vMmtyB95VaC7h1viAyWy-92" value="Diyetler" style="shape=partialRectangle;top=0;left=0;right=0;bottom=0;html=1;align=left;verticalAlign=top;fillColor=#D4E1F5;spacingLeft=34;spacingRight=4;whiteSpace=wrap;overflow=hidden;rotatable=0;points=[[0,0.5],[1,0.5]];portConstraint=eastwest;dropTarget=0;" parent="vMmtyB95VaC7h1viAyWy-75" vertex="1">
          <mxGeometry y="252" width="160" height="26" as="geometry" />
        </mxCell>
        <mxCell id="vMmtyB95VaC7h1viAyWy-93" value="" style="shape=partialRectangle;top=0;left=0;bottom=0;html=1;fillColor=#D4E1F5;align=left;verticalAlign=top;spacingLeft=4;spacingRight=4;whiteSpace=wrap;overflow=hidden;rotatable=0;points=[];portConstraint=eastwest;part=1;" parent="vMmtyB95VaC7h1viAyWy-92" vertex="1" connectable="0">
          <mxGeometry width="30" height="26" as="geometry" />
        </mxCell>
        <mxCell id="vMmtyB95VaC7h1viAyWy-94" value="Tercihler" style="shape=partialRectangle;top=0;left=0;right=0;bottom=0;html=1;align=left;verticalAlign=top;fillColor=#D4E1F5;spacingLeft=34;spacingRight=4;whiteSpace=wrap;overflow=hidden;rotatable=0;points=[[0,0.5],[1,0.5]];portConstraint=eastwest;dropTarget=0;" parent="vMmtyB95VaC7h1viAyWy-75" vertex="1">
          <mxGeometry y="278" width="160" height="26" as="geometry" />
        </mxCell>
        <mxCell id="vMmtyB95VaC7h1viAyWy-95" value="" style="shape=partialRectangle;top=0;left=0;bottom=0;html=1;fillColor=#D4E1F5;align=left;verticalAlign=top;spacingLeft=4;spacingRight=4;whiteSpace=wrap;overflow=hidden;rotatable=0;points=[];portConstraint=eastwest;part=1;" parent="vMmtyB95VaC7h1viAyWy-94" vertex="1" connectable="0">
          <mxGeometry width="30" height="26" as="geometry" />
        </mxCell>
        <mxCell id="vMmtyB95VaC7h1viAyWy-121" value="Profil Resmi" style="shape=partialRectangle;top=0;left=0;right=0;bottom=0;html=1;align=left;verticalAlign=top;fillColor=#D4E1F5;spacingLeft=34;spacingRight=4;whiteSpace=wrap;overflow=hidden;rotatable=0;points=[[0,0.5],[1,0.5]];portConstraint=eastwest;dropTarget=0;" parent="vMmtyB95VaC7h1viAyWy-75" vertex="1">
          <mxGeometry y="304" width="160" height="26" as="geometry" />
        </mxCell>
        <mxCell id="vMmtyB95VaC7h1viAyWy-122" value="" style="shape=partialRectangle;top=0;left=0;bottom=0;html=1;fillColor=#D4E1F5;align=left;verticalAlign=top;spacingLeft=4;spacingRight=4;whiteSpace=wrap;overflow=hidden;rotatable=0;points=[];portConstraint=eastwest;part=1;" parent="vMmtyB95VaC7h1viAyWy-121" vertex="1" connectable="0">
          <mxGeometry width="30" height="26" as="geometry" />
        </mxCell>
        <mxCell id="vMmtyB95VaC7h1viAyWy-96" value="" style="shape=partialRectangle;top=0;left=0;right=0;bottom=0;html=1;align=left;verticalAlign=top;fillColor=#D4E1F5;spacingLeft=34;spacingRight=4;whiteSpace=wrap;overflow=hidden;rotatable=0;points=[[0,0.5],[1,0.5]];portConstraint=eastwest;dropTarget=0;" parent="vMmtyB95VaC7h1viAyWy-75" vertex="1">
          <mxGeometry y="330" width="160" height="10" as="geometry" />
        </mxCell>
        <mxCell id="vMmtyB95VaC7h1viAyWy-97" value="" style="shape=partialRectangle;top=0;left=0;bottom=0;html=1;fillColor=#D4E1F5;align=left;verticalAlign=top;spacingLeft=4;spacingRight=4;whiteSpace=wrap;overflow=hidden;rotatable=0;points=[];portConstraint=eastwest;part=1;" parent="vMmtyB95VaC7h1viAyWy-96" vertex="1" connectable="0">
          <mxGeometry width="30" height="10" as="geometry" />
        </mxCell>
        <mxCell id="vMmtyB95VaC7h1viAyWy-123" value="Şef ve Yazarlar&lt;div&gt;Veritabanı&lt;/div&gt;" style="swimlane;html=1;fontStyle=0;childLayout=stackLayout;horizontal=1;startSize=40;fillColor=#7EA6E0;horizontalStack=0;resizeParent=1;resizeLast=0;collapsible=1;marginBottom=0;swimlaneFillColor=#ffffff;align=center;rounded=0;shadow=0;comic=0;labelBackgroundColor=none;strokeWidth=1;fontFamily=Verdana;fontSize=14" parent="1" vertex="1">
          <mxGeometry x="20" y="-100" width="160" height="184" as="geometry" />
        </mxCell>
        <mxCell id="vMmtyB95VaC7h1viAyWy-124" value="Yazar No" style="shape=partialRectangle;top=0;left=0;right=0;bottom=1;html=1;align=left;verticalAlign=middle;fillColor=#D4E1F5;spacingLeft=34;spacingRight=4;whiteSpace=wrap;overflow=hidden;rotatable=0;points=[[0,0.5],[1,0.5]];portConstraint=eastwest;dropTarget=0;fontStyle=5;" parent="vMmtyB95VaC7h1viAyWy-123" vertex="1">
          <mxGeometry y="40" width="160" height="30" as="geometry" />
        </mxCell>
        <mxCell id="vMmtyB95VaC7h1viAyWy-125" value="PK" style="shape=partialRectangle;top=0;left=0;bottom=0;html=1;fillColor=#D4E1F5;align=left;verticalAlign=middle;spacingLeft=4;spacingRight=4;whiteSpace=wrap;overflow=hidden;rotatable=0;points=[];portConstraint=eastwest;part=1;" parent="vMmtyB95VaC7h1viAyWy-124" vertex="1" connectable="0">
          <mxGeometry width="30" height="30" as="geometry" />
        </mxCell>
        <mxCell id="vMmtyB95VaC7h1viAyWy-126" value="Adı Soyadı&lt;div&gt;&lt;br&gt;&lt;/div&gt;" style="shape=partialRectangle;top=0;left=0;right=0;bottom=0;html=1;align=left;verticalAlign=top;fillColor=#D4E1F5;spacingLeft=34;spacingRight=4;whiteSpace=wrap;overflow=hidden;rotatable=0;points=[[0,0.5],[1,0.5]];portConstraint=eastwest;dropTarget=0;" parent="vMmtyB95VaC7h1viAyWy-123" vertex="1">
          <mxGeometry y="70" width="160" height="26" as="geometry" />
        </mxCell>
        <mxCell id="vMmtyB95VaC7h1viAyWy-127" value="" style="shape=partialRectangle;top=0;left=0;bottom=0;html=1;fillColor=#D4E1F5;align=left;verticalAlign=top;spacingLeft=4;spacingRight=4;whiteSpace=wrap;overflow=hidden;rotatable=0;points=[];portConstraint=eastwest;part=1;" parent="vMmtyB95VaC7h1viAyWy-126" vertex="1" connectable="0">
          <mxGeometry width="30" height="26" as="geometry" />
        </mxCell>
        <mxCell id="vMmtyB95VaC7h1viAyWy-128" value="Biyografi" style="shape=partialRectangle;top=0;left=0;right=0;bottom=0;html=1;align=left;verticalAlign=top;fillColor=#D4E1F5;spacingLeft=34;spacingRight=4;whiteSpace=wrap;overflow=hidden;rotatable=0;points=[[0,0.5],[1,0.5]];portConstraint=eastwest;dropTarget=0;" parent="vMmtyB95VaC7h1viAyWy-123" vertex="1">
          <mxGeometry y="96" width="160" height="26" as="geometry" />
        </mxCell>
        <mxCell id="vMmtyB95VaC7h1viAyWy-129" value="" style="shape=partialRectangle;top=0;left=0;bottom=0;html=1;fillColor=#D4E1F5;align=left;verticalAlign=top;spacingLeft=4;spacingRight=4;whiteSpace=wrap;overflow=hidden;rotatable=0;points=[];portConstraint=eastwest;part=1;" parent="vMmtyB95VaC7h1viAyWy-128" vertex="1" connectable="0">
          <mxGeometry width="30" height="26" as="geometry" />
        </mxCell>
        <mxCell id="vMmtyB95VaC7h1viAyWy-130" value="Profil Resmi" style="shape=partialRectangle;top=0;left=0;right=0;bottom=0;html=1;align=left;verticalAlign=top;fillColor=#D4E1F5;spacingLeft=34;spacingRight=4;whiteSpace=wrap;overflow=hidden;rotatable=0;points=[[0,0.5],[1,0.5]];portConstraint=eastwest;dropTarget=0;" parent="vMmtyB95VaC7h1viAyWy-123" vertex="1">
          <mxGeometry y="122" width="160" height="26" as="geometry" />
        </mxCell>
        <mxCell id="vMmtyB95VaC7h1viAyWy-131" value="" style="shape=partialRectangle;top=0;left=0;bottom=0;html=1;fillColor=#D4E1F5;align=left;verticalAlign=top;spacingLeft=4;spacingRight=4;whiteSpace=wrap;overflow=hidden;rotatable=0;points=[];portConstraint=eastwest;part=1;" parent="vMmtyB95VaC7h1viAyWy-130" vertex="1" connectable="0">
          <mxGeometry width="30" height="26" as="geometry" />
        </mxCell>
        <mxCell id="vMmtyB95VaC7h1viAyWy-132" value="&lt;font style=&quot;font-size: 11px;&quot;&gt;Hesap Oluşturma Tarihi&lt;/font&gt;" style="shape=partialRectangle;top=0;left=0;right=0;bottom=0;html=1;align=left;verticalAlign=top;fillColor=#D4E1F5;spacingLeft=34;spacingRight=4;whiteSpace=wrap;overflow=hidden;rotatable=0;points=[[0,0.5],[1,0.5]];portConstraint=eastwest;dropTarget=0;" parent="vMmtyB95VaC7h1viAyWy-123" vertex="1">
          <mxGeometry y="148" width="160" height="26" as="geometry" />
        </mxCell>
        <mxCell id="vMmtyB95VaC7h1viAyWy-133" value="" style="shape=partialRectangle;top=0;left=0;bottom=0;html=1;fillColor=#D4E1F5;align=left;verticalAlign=top;spacingLeft=4;spacingRight=4;whiteSpace=wrap;overflow=hidden;rotatable=0;points=[];portConstraint=eastwest;part=1;" parent="vMmtyB95VaC7h1viAyWy-132" vertex="1" connectable="0">
          <mxGeometry width="30" height="26" as="geometry" />
        </mxCell>
        <mxCell id="vMmtyB95VaC7h1viAyWy-146" value="" style="shape=partialRectangle;top=0;left=0;right=0;bottom=0;html=1;align=left;verticalAlign=top;fillColor=#D4E1F5;spacingLeft=34;spacingRight=4;whiteSpace=wrap;overflow=hidden;rotatable=0;points=[[0,0.5],[1,0.5]];portConstraint=eastwest;dropTarget=0;" parent="vMmtyB95VaC7h1viAyWy-123" vertex="1">
          <mxGeometry y="174" width="160" height="10" as="geometry" />
        </mxCell>
        <mxCell id="vMmtyB95VaC7h1viAyWy-147" value="" style="shape=partialRectangle;top=0;left=0;bottom=0;html=1;fillColor=#D4E1F5;align=left;verticalAlign=top;spacingLeft=4;spacingRight=4;whiteSpace=wrap;overflow=hidden;rotatable=0;points=[];portConstraint=eastwest;part=1;" parent="vMmtyB95VaC7h1viAyWy-146" vertex="1" connectable="0">
          <mxGeometry width="30" height="10" as="geometry" />
        </mxCell>
        <mxCell id="vMmtyB95VaC7h1viAyWy-159" value="" style="edgeStyle=orthogonalEdgeStyle;html=1;endArrow=ERzeroToMany;startArrow=ERmandOne;labelBackgroundColor=none;fontFamily=Verdana;fontSize=14;entryX=0;entryY=0.5;entryDx=0;entryDy=0;exitX=1;exitY=0.5;exitDx=0;exitDy=0;" parent="1" source="vMmtyB95VaC7h1viAyWy-124" target="vMmtyB95VaC7h1viAyWy-55" edge="1">
          <mxGeometry width="100" height="100" relative="1" as="geometry">
            <mxPoint x="230" y="580" as="sourcePoint" />
            <mxPoint x="400" y="120" as="targetPoint" />
            <Array as="points">
              <mxPoint x="360" y="-45" />
              <mxPoint x="360" y="113" />
            </Array>
          </mxGeometry>
        </mxCell>
        <mxCell id="vMmtyB95VaC7h1viAyWy-162" value="" style="edgeStyle=orthogonalEdgeStyle;html=1;endArrow=ERzeroToMany;startArrow=ERmandOne;labelBackgroundColor=none;fontFamily=Verdana;fontSize=14;exitX=0;exitY=0.5;exitDx=0;exitDy=0;entryX=1;entryY=0.5;entryDx=0;entryDy=0;" parent="1" source="vMmtyB95VaC7h1viAyWy-76" target="vMmtyB95VaC7h1viAyWy-32" edge="1">
          <mxGeometry width="100" height="100" relative="1" as="geometry">
            <mxPoint x="10" y="180" as="sourcePoint" />
            <mxPoint x="-190" y="360" as="targetPoint" />
            <Array as="points">
              <mxPoint x="-40" y="275" />
              <mxPoint x="-40" y="343" />
            </Array>
          </mxGeometry>
        </mxCell>
      </root>
    </mxGraphModel>
  </diagram>
</mxfile>
